<svg width="6466" height="188" viewBox="0 0 6466 188" fill="none" xmlns="http://www.w3.org/2000/svg">
<path d="M623.5 17H0V194.5H1087.5V1.5H623.5V17Z" fill="white"/>
<path d="M1152.5 17.5V195H1503.5V194.5V17.5H1152.5Z" fill="white"/>
<path d="M1536.5 17.5V194.5H1615.5V17.5H1536.5Z" fill="white"/>
<path d="M2239.5 195V17.5H1664.5V195H2239.5Z" fill="white"/>
<path d="M2256.5 17.5V195H6464.5V17.5H2256.5Z" fill="white"/>
<path d="M1503.5 17.5H1152.5V195H1503.5V17.5ZM1503.5 17.5V194.5M1615.5 195V194.5M1615.5 194.5V17.5H1536.5V194.5H1615.5ZM0 17H623.5V1.5H1087.5V194.5H0V17ZM2239.5 17.5V195H1664.5V17.5H2239.5ZM2256.5 195V17.5H6464.5V195H2256.5Z" stroke="black" stroke-width="2"/>
</svg>
